<svg width="1200" height="630" viewBox="0 0 1200 630" fill="none" xmlns="http://www.w3.org/2000/svg">
  <defs>
    <linearGradient id="bg" x1="0" y1="0" x2="1200" y2="630" gradientUnits="userSpaceOnUse">
      <stop stop-color="#0C0A18"/><stop offset="0.52" stop-color="#080912"/><stop offset="1" stop-color="#061117"/>
    </linearGradient>
    <linearGradient id="line" x1="80" y1="0" x2="1130" y2="0" gradientUnits="userSpaceOnUse">
      <stop stop-color="#A178FF"/><stop offset=".5" stop-color="#72D9ED"/><stop offset="1" stop-color="#78E5CF"/>
    </linearGradient>
    <filter id="shadow" x="-20%" y="-20%" width="140%" height="140%"><feDropShadow dx="0" dy="18" stdDeviation="24" flood-color="#000" flood-opacity=".35"/></filter>
  </defs>
  <rect width="1200" height="630" fill="url(#bg)"/>
  <circle cx="84" cy="-10" r="260" fill="#5B2E9A" fill-opacity=".12"/><circle cx="1150" cy="620" r="300" fill="#0C7080" fill-opacity=".1"/>
  <rect x="52" y="34" width="1096" height="562" rx="20" fill="#0D0F19" fill-opacity=".94" stroke="#B4C0DC" stroke-opacity=".2" filter="url(#shadow)"/>
  <rect x="52" y="34" width="1096" height="54" rx="20" fill="#080A12" fill-opacity=".75"/>
  <path d="M52 88H1148" stroke="#B4C0DC" stroke-opacity=".13"/>
  <rect x="76" y="49" width="24" height="24" rx="7" stroke="#A178FF"/><text x="88" y="66" fill="#A178FF" font-family="monospace" font-size="12" font-weight="700" text-anchor="middle">G</text>
  <text x="113" y="62" fill="#F3F4FB" font-family="monospace" font-size="15" font-weight="700">Gridate</text><text x="113" y="76" fill="#62687B" font-family="monospace" font-size="8">VISUAL ACTIVITY TIMELINE PLANNER</text>
  <circle cx="1020" cy="61" r="4" fill="#78E5CF"/><text x="1032" y="65" fill="#62687B" font-family="monospace" font-size="9">LOCAL / PRIVATE</text>
  <text x="78" y="126" fill="#A178FF" font-family="monospace" font-size="9" font-weight="700" letter-spacing="2">VISUAL ACTIVITY TIMELINE</text>
  <text x="78" y="157" fill="#F3F4FB" font-family="monospace" font-size="30" font-weight="700">Paint activity. Shape time.</text>
  <text x="940" y="150" fill="#78E5CF" font-family="monospace" font-size="12" text-anchor="end">0 EVENTS</text><text x="940" y="166" fill="#62687B" font-family="monospace" font-size="9" text-anchor="end">3 YEARS / BROWSER ONLY</text>
  <rect x="78" y="187" width="1044" height="64" rx="10" fill="#0B0D16" stroke="#B4C0DC" stroke-opacity=".2"/>
  <text x="96" y="207" fill="#A178FF" font-family="monospace" font-size="8" font-weight="700" letter-spacing="2">01 / RANGE</text><text x="96" y="232" fill="#62687B" font-family="monospace" font-size="9">FROM</text><text x="170" y="232" fill="#F3F4FB" font-family="monospace" font-size="13" font-weight="700">2024-01-01</text><text x="335" y="232" fill="#62687B" font-family="monospace" font-size="13">→</text><text x="380" y="232" fill="#62687B" font-family="monospace" font-size="9">TO</text><text x="424" y="232" fill="#F3F4FB" font-family="monospace" font-size="13" font-weight="700">2026-09-16</text>
  <rect x="78" y="267" width="1044" height="70" rx="10" fill="#0D0F19" stroke="#B4C0DC" stroke-opacity=".2"/>
  <text x="96" y="289" fill="#A178FF" font-family="monospace" font-size="8" font-weight="700" letter-spacing="2">02 / OVERVIEW</text>
  <text x="96" y="319" fill="#62687B" font-family="monospace" font-size="8">TOTAL</text><text x="96" y="331" fill="#F3F4FB" font-family="monospace" font-size="17" font-weight="700">0</text>
  <text x="222" y="319" fill="#62687B" font-family="monospace" font-size="8">ACTIVE DAYS</text><text x="222" y="331" fill="#F3F4FB" font-family="monospace" font-size="17" font-weight="700">0</text>
  <text x="386" y="319" fill="#62687B" font-family="monospace" font-size="8">TARGET</text><text x="386" y="331" fill="#F3F4FB" font-family="monospace" font-size="17" font-weight="700">—</text>
  <text x="530" y="319" fill="#62687B" font-family="monospace" font-size="8">REMAINING</text><text x="530" y="331" fill="#F3F4FB" font-family="monospace" font-size="17" font-weight="700">—</text>
  <rect x="78" y="353" width="1044" height="165" rx="10" fill="#0B0D16" stroke="#B4C0DC" stroke-opacity=".2"/>
  <text x="96" y="377" fill="#A178FF" font-family="monospace" font-size="8" font-weight="700" letter-spacing="2">04 / CALENDAR</text><text x="96" y="399" fill="#F3F4FB" font-family="monospace" font-size="14" font-weight="700">Activity calendar</text>
  <g fill="#21262D">
    <rect x="96" y="416" width="780" height="80" rx="3"/>
  </g>
  <g fill="#0E4429"><rect x="126" y="430" width="10" height="10" rx="2"/><rect x="150" y="454" width="10" height="10" rx="2"/><rect x="188" y="442" width="10" height="10" rx="2"/><rect x="250" y="478" width="10" height="10" rx="2"/><rect x="330" y="430" width="10" height="10" rx="2"/><rect x="412" y="454" width="10" height="10" rx="2"/><rect x="532" y="442" width="10" height="10" rx="2"/><rect x="694" y="478" width="10" height="10" rx="2"/></g>
  <g fill="#26A641"><rect x="140" y="442" width="10" height="10" rx="2"/><rect x="202" y="466" width="10" height="10" rx="2"/><rect x="300" y="442" width="10" height="10" rx="2"/><rect x="390" y="478" width="10" height="10" rx="2"/><rect x="478" y="430" width="10" height="10" rx="2"/><rect x="620" y="466" width="10" height="10" rx="2"/><rect x="760" y="442" width="10" height="10" rx="2"/></g>
  <text x="938" y="432" fill="#A178FF" font-family="monospace" font-size="8" font-weight="700" letter-spacing="2">PRIVATE BY DEFAULT</text><text x="938" y="454" fill="#9297AA" font-family="monospace" font-size="10">No account.</text><text x="938" y="470" fill="#9297AA" font-family="monospace" font-size="10">No backend.</text><text x="938" y="486" fill="#9297AA" font-family="monospace" font-size="10">No repo access.</text>
  <rect x="78" y="536" width="1044" height="1" fill="url(#line)"/><text x="78" y="558" fill="#62687B" font-family="monospace" font-size="9">Gridate / MIT / React + TypeScript + Vite</text><text x="1122" y="558" fill="#78E5CF" font-family="monospace" font-size="9" text-anchor="end">PAINT ACTIVITY. SHAPE TIME.</text>
</svg>
